<svg xmlns="http://www.w3.org/2000/svg" width="512" height="512" viewBox="0 0 512 512" style="overflow: visible;" data-svgdocument="" id="_coFzKRGqBYMIJBnZ_CCwX" class="fl-svgdocument" x="0" y="0" overflow="hidden" data-bbox="59.393533687117554 195.7667339744668 411.0354571033359 89.69796835656652"><path id="_BATRyMAZJLXPz1LAsjwes" fill="#1c55ff" transform="matrix(0.5074275732040405, 0, 0, 0.5074275732040405, 59.393531799316406, 195.76673889160156)" data-type="circle" data-cx="88.385" data-cy="88.385" data-r="88.385" d="M88.385,88.385m-88.385,0a88.385,88.385 0 1, 0 176.77,0a88.385,88.385 0 1, 0 -176.77,0" data-uid="o_f532d45i8_4"></path><path id="_Xc3C9J8BZYW5QKfviSALD" d="M91.019 40.902c-1.945 0-3.521-1.576-3.521-3.52c0-0.555 0.14-1.073 0.369-1.54c-3.819-9.117-10.873-16.544-19.729-20.836  v11.815l-7.038 7.04l2.348 3.521h15.251v8.799h11.908c-0.072-0.502-0.117-1.011-0.2-1.509l3.456-0.645  c0.412 2.422 0.674 4.894 0.674 7.433c0 24.299-19.697 43.996-43.995 43.996c-19.457 0-35.921-12.646-41.727-30.156  c-1.325-0.504-2.271-1.777-2.271-3.279c0-1.944 1.576-3.521 3.52-3.521c1.943 0 3.52 1.576 3.52 3.521  c0 1.08-0.496 2.031-1.261 2.678c0.78 2.253 1.774 4.406 2.92 6.459l10.659-9.137v-12.32h10.56v-7.041h-7.04v-7.039H13.284  c-2.071 4.864-3.221 10.217-3.221 15.839c0 0.949 0.078 1.879 0.142 2.812l-3.487 0.649c-0.09-1.146-0.175-2.294-0.175-3.464  c0-24.298 19.698-43.997 43.998-43.997c18.04 0 33.493 10.88 40.282 26.417c0.065-0.003 0.127-0.019 0.195-0.019  c1.943 0 3.518 1.576 3.518 3.521C94.536 39.326 92.962 40.902 91.019 40.902z M75.179 40.902H64.618v10.559h10.561V40.902z   M91.019 51.461c0-0.594-0.058-1.173-0.085-1.759H78.698v5.279h-7.041l-0.018 9.419l-2.995 3.325L80.72 78.37  C87.105 71.215 91.019 61.807 91.019 51.461z M17.288 74.433c7.295 10.562 19.443 17.507 33.253 17.507  c10.711 0 20.424-4.19 27.663-10.984L66.394 70.397L62.86 74.34h-8.799v3.521H36.462v-5.28l-7.92-7.92l-0.88 0.881L17.288 74.433z   M50.541 74.34V63.781h-10.56V74.34H50.541z M29.422 53.22v6.802l7.04 7.039v-6.8h17.599v10.56H61.1l7.038-7.039V54.98H61.1V40.902  l-3.519-5.279H47.021v7.039h-7.04V53.22H29.422z M32.941 35.623v3.519h10.56v-10.56H39.98h-7.04L32.941 35.623L32.941 35.623z   M36.462 13.551c-9.193 3.417-16.828 10.037-21.474 18.552h14.434v-7.041l0 0h7.04V13.551z M64.618 13.529  c-4.384-1.633-9.12-2.544-14.077-2.544c-3.661 0-7.189 0.53-10.561 1.438v12.639h7.04v7.041h10.561l7.037-7.041V13.529z" fill="#ffffff" transform="matrix(0.8403946757316589, 0, 0, 0.8403946757316589, 62.180328369140625, 197.37069702148438)" data-uid="o_f532d45i8_5"></path><path text="Rapid" text-anchor="start" font-size="100" letter-spacing="0" side="left" offset="0" dx="0" dy="0" space="preserve" href="" font-family="Montserrat" font-scale="contain" transform="matrix(0.5113133192062378, 0, 0, 0.5113133192062378, 169.93003845214844, 255.77615356445312)" x="0" y="0" fill="#1c55ff" font-weight="700" data-fl-textpath="" id="_8aQbwXwIqHgRNT3mfYdpv" data-uid="o_f532d45i8_6" d="M 70.3 0L 52.9 0L 39.4-19.5L 38.6-19.5L 24.5-19.5L 24.5 0L 8.3 0L 8.3-70L 38.6-70Q 47.9-70  54.75-66.9Q 61.6-63.8  65.3-58.1Q 69-52.4  69-44.6L 69-44.6Q 69-36.8  65.25-31.15Q 61.5-25.5  54.6-22.5L 54.6-22.5L 70.3 0ZM 52.6-44.6Q 52.6-50.5  48.8-53.65Q 45-56.8  37.7-56.8L 37.7-56.8L 24.5-56.8L 24.5-32.4L 37.7-32.4Q 45-32.4  48.8-35.6Q 52.6-38.8  52.6-44.6L 52.6-44.6ZM 101.9-54.6Q 114.4-54.6  121.1-48.65Q 127.8-42.7  127.8-30.7L 127.8-30.7L 127.8 0L 113.2 0L 113.2-6.7Q 108.8 0.8  96.8 0.8L 96.8 0.8Q 90.6 0.8  86.05-1.3Q 81.5-3.4  79.1-7.1Q 76.7-10.8  76.7-15.5L 76.7-15.5Q 76.7-23  82.35-27.3Q 88-31.6  99.8-31.6L 99.8-31.6L 112.2-31.6Q 112.2-36.7  109.1-39.45Q 106-42.2  99.8-42.2L 99.8-42.2Q 95.5-42.2  91.35-40.85Q 87.2-39.5  84.3-37.2L 84.3-37.2L 78.7-48.1Q 83.1-51.2  89.25-52.9Q 95.4-54.6  101.9-54.6L 101.9-54.6ZM 100.7-9.7Q 104.7-9.7  107.8-11.55Q 110.9-13.4  112.2-17L 112.2-17L 112.2-22.5L 101.5-22.5Q 91.9-22.5  91.9-16.2L 91.9-16.2Q 91.9-13.2  94.25-11.45Q 96.6-9.7  100.7-9.7L 100.7-9.7ZM 173.7-54.6Q 181.2-54.6  187.35-51.15Q 193.5-47.7  197-41.45Q 200.5-35.2  200.5-26.9L 200.5-26.9Q 200.5-18.6  197-12.35Q 193.5-6.1  187.35-2.65Q 181.2 0.8  173.7 0.8L 173.7 0.8Q 163.39999999999998 0.8  157.5-5.7L 157.5-5.7L 157.5 19.4L 141.89999999999998 19.4L 141.89999999999998-53.8L 156.79999999999998-53.8L 156.79999999999998-47.6Q 162.6-54.6  173.7-54.6L 173.7-54.6ZM 171-12Q 177-12  180.85-16.05Q 184.7-20.1  184.7-26.9L 184.7-26.9Q 184.7-33.7  180.85-37.75Q 177-41.8  171-41.8L 171-41.8Q 165-41.8  161.14999999999998-37.75Q 157.29999999999998-33.7  157.29999999999998-26.9L 157.29999999999998-26.9Q 157.29999999999998-20.1  161.14999999999998-16.05Q 165-12  171-12L 171-12ZM 210.89999999999998 0L 210.89999999999998-53.8L 226.5-53.8L 226.5 0L 210.89999999999998 0ZM 218.7-61.3Q 214.39999999999998-61.3  211.7-63.8Q 209-66.3  209-70L 209-70Q 209-73.7  211.7-76.2Q 214.39999999999998-78.7  218.7-78.7L 218.7-78.7Q 223-78.7  225.7-76.3Q 228.39999999999998-73.9  228.39999999999998-70.3L 228.39999999999998-70.3Q 228.39999999999998-66.4  225.7-63.85Q 223-61.3  218.7-61.3L 218.7-61.3ZM 280.2-74.2L 295.79999999999995-74.2L 295.79999999999995 0L 280.9 0L 280.9-6.2Q 275.09999999999997 0.8  264.09999999999997 0.8L 264.09999999999997 0.8Q 256.5 0.8  250.35-2.6Q 244.2-6  240.7-12.3Q 237.2-18.6  237.2-26.9L 237.2-26.9Q 237.2-35.2  240.7-41.5Q 244.2-47.8  250.35-51.2Q 256.5-54.6  264.09999999999997-54.6L 264.09999999999997-54.6Q 274.4-54.6  280.2-48.1L 280.2-48.1L 280.2-74.2ZM 266.79999999999995-12Q 272.7-12  276.59999999999997-16.05Q 280.5-20.1  280.5-26.9L 280.5-26.9Q 280.5-33.7  276.59999999999997-37.75Q 272.7-41.8  266.79999999999995-41.8L 266.79999999999995-41.8Q 260.79999999999995-41.8  256.9-37.75Q 252.99999999999997-33.7  252.99999999999997-26.9L 252.99999999999997-26.9Q 252.99999999999997-20.1  256.9-16.05Q 260.79999999999995-12  266.79999999999995-12L 266.79999999999995-12Z"></path><path text="Apps" text-anchor="start" font-size="100" letter-spacing="0" side="left" offset="0" dx="0" dy="0" space="preserve" href="" font-family="Montserrat" font-scale="contain" transform="matrix(0.5113133192062378, 0, 0, 0.5113133192062378, 334.7775573730469, 253.55194091796875)" x="0" y="0" fill="#1c55ff" font-weight="700" data-fl-textpath="" id="_IpHy63JIL9PEnI5NaR21t" data-uid="o_f532d45i8_7" d="M 60.6 0L 54.4-15L 21.9-15L 15.7 0L-0.9 0L 30.3-70L 46.3-70L 77.6 0L 60.6 0ZM 27.1-27.3L 49.3-27.3L 38.2-54.1L 27.1-27.3ZM 115.60000000000001-54.6Q 123.10000000000001-54.6  129.25-51.15Q 135.4-47.7  138.9-41.45Q 142.4-35.2  142.4-26.9L 142.4-26.9Q 142.4-18.6  138.9-12.35Q 135.4-6.1  129.25-2.65Q 123.10000000000001 0.8  115.60000000000001 0.8L 115.60000000000001 0.8Q 105.30000000000001 0.8  99.4-5.7L 99.4-5.7L 99.4 19.4L 83.80000000000001 19.4L 83.80000000000001-53.8L 98.70000000000002-53.8L 98.70000000000002-47.6Q 104.5-54.6  115.60000000000001-54.6L 115.60000000000001-54.6ZM 112.9-12Q 118.9-12  122.75-16.05Q 126.60000000000001-20.1  126.60000000000001-26.9L 126.60000000000001-26.9Q 126.60000000000001-33.7  122.75-37.75Q 118.9-41.8  112.9-41.8L 112.9-41.8Q 106.9-41.8  103.05000000000001-37.75Q 99.20000000000002-33.7  99.20000000000002-26.9L 99.20000000000002-26.9Q 99.20000000000002-20.1  103.05000000000001-16.05Q 106.9-12  112.9-12L 112.9-12ZM 184.60000000000002-54.6Q 192.10000000000002-54.6  198.25000000000003-51.15Q 204.40000000000003-47.7  207.90000000000003-41.45Q 211.40000000000003-35.2  211.40000000000003-26.9L 211.40000000000003-26.9Q 211.40000000000003-18.6  207.90000000000003-12.35Q 204.40000000000003-6.1  198.25000000000003-2.65Q 192.10000000000002 0.8  184.60000000000002 0.8L 184.60000000000002 0.8Q 174.3 0.8  168.40000000000003-5.7L 168.40000000000003-5.7L 168.40000000000003 19.4L 152.8 19.4L 152.8-53.8L 167.70000000000002-53.8L 167.70000000000002-47.6Q 173.50000000000003-54.6  184.60000000000002-54.6L 184.60000000000002-54.6ZM 181.90000000000003-12Q 187.90000000000003-12  191.75000000000003-16.05Q 195.60000000000002-20.1  195.60000000000002-26.9L 195.60000000000002-26.9Q 195.60000000000002-33.7  191.75000000000003-37.75Q 187.90000000000003-41.8  181.90000000000003-41.8L 181.90000000000003-41.8Q 175.90000000000003-41.8  172.05-37.75Q 168.20000000000002-33.7  168.20000000000002-26.9L 168.20000000000002-26.9Q 168.20000000000002-20.1  172.05-16.05Q 175.90000000000003-12  181.90000000000003-12L 181.90000000000003-12ZM 239.90000000000003 0.8Q 233.20000000000002 0.8  226.8-0.85Q 220.40000000000003-2.5  216.60000000000002-5L 216.60000000000002-5L 221.8-16.2Q 225.40000000000003-13.9  230.50000000000003-12.45Q 235.60000000000002-11  240.50000000000003-11L 240.50000000000003-11Q 250.40000000000003-11  250.40000000000003-15.9L 250.40000000000003-15.9Q 250.40000000000003-18.2  247.70000000000002-19.2Q 245.00000000000003-20.2  239.40000000000003-20.9L 239.40000000000003-20.9Q 232.8-21.9  228.50000000000003-23.2Q 224.20000000000002-24.5  221.05-27.8Q 217.90000000000003-31.1  217.90000000000003-37.2L 217.90000000000003-37.2Q 217.90000000000003-42.3  220.85000000000002-46.25Q 223.8-50.2  229.45000000000002-52.4Q 235.10000000000002-54.6  242.8-54.6L 242.8-54.6Q 248.50000000000003-54.6  254.15000000000003-53.35Q 259.8-52.1  263.5-49.9L 263.5-49.9L 258.3-38.8Q 251.20000000000002-42.8  242.8-42.8L 242.8-42.8Q 237.8-42.8  235.3-41.4Q 232.8-40  232.8-37.8L 232.8-37.8Q 232.8-35.3  235.50000000000003-34.3Q 238.20000000000002-33.3  244.10000000000002-32.4L 244.10000000000002-32.4Q 250.70000000000002-31.3  254.90000000000003-30.05Q 259.1-28.8  262.20000000000005-25.5Q 265.3-22.2  265.3-16.3L 265.3-16.3Q 265.3-11.3  262.3-7.4Q 259.3-3.5  253.55-1.35Q 247.8 0.8  239.90000000000003 0.8L 239.90000000000003 0.8Z"></path></svg>