<svg xmlns="http://www.w3.org/2000/svg" width="512" height="512" viewBox="0 0 512 512" style="overflow: visible;" data-svgdocument="" id="_coFzKRGqBYMIJBnZ_CCwX" class="fl-svgdocument" x="0" y="0" overflow="hidden" data-bbox="59.393533687117554 195.7667339744668 411.0354571033359 89.69796835656652"><path id="_BATRyMAZJLXPz1LAsjwes" fill="#1c55ff" transform="matrix(0.5074275732040405, 0, 0, 0.5074275732040405, 59.393531799316406, 195.76673889160156)" data-type="circle" data-cx="88.385" data-cy="88.385" data-r="88.385" d="M88.385,88.385m-88.385,0a88.385,88.385 0 1, 0 176.77,0a88.385,88.385 0 1, 0 -176.77,0" data-uid="o_f532d45i8_4"></path><path id="_Xc3C9J8BZYW5QKfviSALD" d="M91.019 40.902c-1.945 0-3.521-1.576-3.521-3.52c0-0.555 0.14-1.073 0.369-1.54c-3.819-9.117-10.873-16.544-19.729-20.836  v11.815l-7.038 7.04l2.348 3.521h15.251v8.799h11.908c-0.072-0.502-0.117-1.011-0.2-1.509l3.456-0.645  c0.412 2.422 0.674 4.894 0.674 7.433c0 24.299-19.697 43.996-43.995 43.996c-19.457 0-35.921-12.646-41.727-30.156  c-1.325-0.504-2.271-1.777-2.271-3.279c0-1.944 1.576-3.521 3.52-3.521c1.943 0 3.52 1.576 3.52 3.521  c0 1.08-0.496 2.031-1.261 2.678c0.78 2.253 1.774 4.406 2.92 6.459l10.659-9.137v-12.32h10.56v-7.041h-7.04v-7.039H13.284  c-2.071 4.864-3.221 10.217-3.221 15.839c0 0.949 0.078 1.879 0.142 2.812l-3.487 0.649c-0.09-1.146-0.175-2.294-0.175-3.464  c0-24.298 19.698-43.997 43.998-43.997c18.04 0 33.493 10.88 40.282 26.417c0.065-0.003 0.127-0.019 0.195-0.019  c1.943 0 3.518 1.576 3.518 3.521C94.536 39.326 92.962 40.902 91.019 40.902z M75.179 40.902H64.618v10.559h10.561V40.902z   M91.019 51.461c0-0.594-0.058-1.173-0.085-1.759H78.698v5.279h-7.041l-0.018 9.419l-2.995 3.325L80.72 78.37  C87.105 71.215 91.019 61.807 91.019 51.461z M17.288 74.433c7.295 10.562 19.443 17.507 33.253 17.507  c10.711 0 20.424-4.19 27.663-10.984L66.394 70.397L62.86 74.34h-8.799v3.521H36.462v-5.28l-7.92-7.92l-0.88 0.881L17.288 74.433z   M50.541 74.34V63.781h-10.56V74.34H50.541z M29.422 53.22v6.802l7.04 7.039v-6.8h17.599v10.56H61.1l7.038-7.039V54.98H61.1V40.902  l-3.519-5.279H47.021v7.039h-7.04V53.22H29.422z M32.941 35.623v3.519h10.56v-10.56H39.98h-7.04L32.941 35.623L32.941 35.623z   M36.462 13.551c-9.193 3.417-16.828 10.037-21.474 18.552h14.434v-7.041l0 0h7.04V13.551z M64.618 13.529  c-4.384-1.633-9.12-2.544-14.077-2.544c-3.661 0-7.189 0.53-10.561 1.438v12.639h7.04v7.041h10.561l7.037-7.041V13.529z" fill="#ffffff" transform="matrix(0.8403946757316589, 0, 0, 0.8403946757316589, 62.180328369140625, 197.37069702148438)" data-uid="o_f532d45i8_5"></path></svg>